<svg xmlns="http://www.w3.org/2000/svg" viewBox="0 0 1920 900" width="1920" height="900" preserveAspectRatio="xMidYMid slice"><defs><pattern id="p" width="90" height="90" patternUnits="userSpaceOnUse"><g transform="translate(45 45)"><ellipse cx="0" cy="-13" rx="5" ry="10" transform="rotate(0)" fill="#b49a62" opacity=".22" stroke="#b49a62" stroke-width="1" stroke-opacity=".55"/><ellipse cx="0" cy="-13" rx="5" ry="10" transform="rotate(60)" fill="#b49a62" opacity=".22" stroke="#b49a62" stroke-width="1" stroke-opacity=".55"/><ellipse cx="0" cy="-13" rx="5" ry="10" transform="rotate(120)" fill="#b49a62" opacity=".22" stroke="#b49a62" stroke-width="1" stroke-opacity=".55"/><ellipse cx="0" cy="-13" rx="5" ry="10" transform="rotate(180)" fill="#b49a62" opacity=".22" stroke="#b49a62" stroke-width="1" stroke-opacity=".55"/><ellipse cx="0" cy="-13" rx="5" ry="10" transform="rotate(240)" fill="#b49a62" opacity=".22" stroke="#b49a62" stroke-width="1" stroke-opacity=".55"/><ellipse cx="0" cy="-13" rx="5" ry="10" transform="rotate(300)" fill="#b49a62" opacity=".22" stroke="#b49a62" stroke-width="1" stroke-opacity=".55"/><circle r="4" fill="#b49a62" opacity=".6"/></g></pattern><linearGradient id="lt" x1="0" y1="0" x2="0" y2="1"><stop offset="0" stop-color="#fff" stop-opacity=".32"/><stop offset="1" stop-color="#fff" stop-opacity="0"/></linearGradient><linearGradient id="dk" x1="0" y1="0" x2="0" y2="1"><stop offset="0" stop-color="#000" stop-opacity=".26"/><stop offset="1" stop-color="#000" stop-opacity="0"/></linearGradient><radialGradient id="glow" cx=".72" cy=".25" r=".75"><stop offset="0" stop-color="#fff" stop-opacity=".30"/><stop offset="1" stop-color="#fff" stop-opacity="0"/></radialGradient><filter id="n"><feTurbulence type="fractalNoise" baseFrequency=".9" numOctaves="2" seed="5"/><feColorMatrix values="0 0 0 0 0  0 0 0 0 0  0 0 0 0 0  0 0 0 .08 0"/></filter></defs><rect width="1920" height="900" fill="#e6dfd0"/><rect width="1920" height="900" fill="url(#p)"/><path d="M-160,35 C346,-53 691,124 1056,35 S1651,-53 2080,79 L2080,1140 L-160,1140 Z" fill="url(#lt)"><animateTransform attributeName="transform" type="translate" values="0 0;-73 15;0 0" dur="14s" repeatCount="indefinite"/></path><path d="M-160,213 C346,127 691,298 1056,213 S1651,127 2080,255 L2080,1140 L-160,1140 Z" fill="url(#dk)"><animateTransform attributeName="transform" type="translate" values="0 0;-47 13;0 0" dur="17s" repeatCount="indefinite"/></path><path d="M-160,340 C346,276 691,403 1056,340 S1651,276 2080,371 L2080,1140 L-160,1140 Z" fill="url(#lt)"><animateTransform attributeName="transform" type="translate" values="0 0;46 15;0 0" dur="20s" repeatCount="indefinite"/></path><path d="M-160,524 C346,416 691,631 1056,524 S1651,416 2080,578 L2080,1140 L-160,1140 Z" fill="url(#dk)"><animateTransform attributeName="transform" type="translate" values="0 0;-44 16;0 0" dur="23s" repeatCount="indefinite"/></path><path d="M-160,673 C346,611 691,734 1056,673 S1651,611 2080,703 L2080,1140 L-160,1140 Z" fill="url(#lt)"><animateTransform attributeName="transform" type="translate" values="0 0;77 17;0 0" dur="26s" repeatCount="indefinite"/></path><path d="M-160,822 C346,761 691,883 1056,822 S1651,761 2080,852 L2080,1140 L-160,1140 Z" fill="url(#dk)"><animateTransform attributeName="transform" type="translate" values="0 0;-64 16;0 0" dur="29s" repeatCount="indefinite"/></path><rect width="1920" height="900" fill="url(#glow)"/><rect width="1920" height="900" filter="url(#n)"/></svg>