<svg xmlns="http://www.w3.org/2000/svg" viewBox="0 0 800 1000" width="800" height="1000" preserveAspectRatio="xMidYMid slice"><defs><pattern id="p" width="90" height="90" patternUnits="userSpaceOnUse"><g transform="translate(45 45)"><ellipse cx="0" cy="-13" rx="5" ry="10" transform="rotate(0)" fill="#7f6f4a" opacity=".22" stroke="#7f6f4a" stroke-width="1" stroke-opacity=".55"/><ellipse cx="0" cy="-13" rx="5" ry="10" transform="rotate(60)" fill="#7f6f4a" opacity=".22" stroke="#7f6f4a" stroke-width="1" stroke-opacity=".55"/><ellipse cx="0" cy="-13" rx="5" ry="10" transform="rotate(120)" fill="#7f6f4a" opacity=".22" stroke="#7f6f4a" stroke-width="1" stroke-opacity=".55"/><ellipse cx="0" cy="-13" rx="5" ry="10" transform="rotate(180)" fill="#7f6f4a" opacity=".22" stroke="#7f6f4a" stroke-width="1" stroke-opacity=".55"/><ellipse cx="0" cy="-13" rx="5" ry="10" transform="rotate(240)" fill="#7f6f4a" opacity=".22" stroke="#7f6f4a" stroke-width="1" stroke-opacity=".55"/><ellipse cx="0" cy="-13" rx="5" ry="10" transform="rotate(300)" fill="#7f6f4a" opacity=".22" stroke="#7f6f4a" stroke-width="1" stroke-opacity=".55"/><circle r="4" fill="#7f6f4a" opacity=".6"/></g><circle cx="0" cy="0" r="2" fill="#7f6f4a" opacity=".5"/><circle cx="90" cy="90" r="2" fill="#7f6f4a" opacity=".5"/><circle cx="0" cy="90" r="2" fill="#7f6f4a" opacity=".5"/><circle cx="90" cy="0" r="2" fill="#7f6f4a" opacity=".5"/></pattern><pattern id="w" width="10" height="10" patternUnits="userSpaceOnUse"><rect width="5" height="5" fill="#7f6f4a" opacity=".35"/><rect x="5" y="5" width="5" height="5" fill="#7f6f4a" opacity=".35"/></pattern><linearGradient id="f" x1="0" y1="0" x2="1" y2="0.35"><stop offset="0" stop-color="#000" stop-opacity=".10"/><stop offset=".18" stop-color="#fff" stop-opacity=".16"/><stop offset=".34" stop-color="#000" stop-opacity=".12"/><stop offset=".52" stop-color="#fff" stop-opacity=".14"/><stop offset=".70" stop-color="#000" stop-opacity=".13"/><stop offset=".86" stop-color="#fff" stop-opacity=".12"/><stop offset="1" stop-color="#000" stop-opacity=".12"/></linearGradient><filter id="n"><feTurbulence type="fractalNoise" baseFrequency=".9" numOctaves="2" seed="3"/><feColorMatrix values="0 0 0 0 0  0 0 0 0 0  0 0 0 0 0  0 0 0 .09 0"/></filter></defs><rect width="800" height="1000" fill="#e8e0d0"/><rect width="800" height="1000" fill="url(#w)"/><rect y="690" width="800" height="310" fill="#e8e0d0"/><rect y="690" width="800" height="310" fill="url(#p)"/><rect y="684" width="800" height="6" fill="#7f6f4a" opacity=".7"/><rect y="700" width="800" height="2" fill="#7f6f4a" opacity=".5"/><rect width="800" height="1000" fill="url(#f)"/><rect width="800" height="1000" filter="url(#n)"/></svg>